<?xml version="1.0" encoding="utf-8"?>
<!-- Generator: Adobe Illustrator 19.2.1, SVG Export Plug-In . SVG Version: 6.00 Build 0)  -->
<svg version="1.1" id="Layer_1" xmlns="http://www.w3.org/2000/svg" xmlns:xlink="http://www.w3.org/1999/xlink" x="0px" y="0px"
	 viewBox="0 0 805.3 137.6" style="enable-background:new 0 0 805.3 137.6;" xml:space="preserve">
<style type="text/css">
	.st0{fill:#1D1D1B;}
	.st1{fill:#0070BA;}
	.st2{fill:#009D97;}
</style>
<title>Beaver-Logo-White</title>
<path class="st0" d="M162.9,28v27.4h0.2c1.8-2.8,4.4-4.9,7.4-6.2c3.1-1.3,6.4-2,9.8-2c2.8,0,5.6,0.6,8.1,1.7
	c2.8,1.2,5.2,2.9,7.2,5.2c2.3,2.6,4.1,5.6,5.2,8.9c1.4,4.2,2.1,8.5,2,12.9c0.1,4.4-0.6,8.8-2,12.9c-1.1,3.3-2.9,6.3-5.2,8.9
	c-2,2.2-4.5,4-7.2,5.1c-2.6,1.1-5.3,1.7-8.1,1.7c-3.7,0.1-7.3-0.6-10.8-1.9c-3.1-1.2-5.6-3.5-7.2-6.4h-0.2v7H148V28H162.9L162.9,28z
	 M187.2,69.4c-0.4-2-1.2-3.9-2.3-5.6c-1-1.6-2.4-2.9-4-3.9c-1.7-1-3.7-1.5-5.8-1.4c-2,0-3.9,0.4-5.6,1.4c-1.6,1-3,2.3-4,3.9
	c-1.1,1.7-1.9,3.6-2.3,5.6c-0.5,2.2-0.7,4.4-0.7,6.6c0,2.2,0.2,4.4,0.7,6.5c0.4,2,1.2,3.9,2.3,5.6c1,1.6,2.4,2.9,4,3.9
	c1.7,1,3.7,1.5,5.7,1.4c2,0.1,4-0.4,5.8-1.4c1.6-1,3-2.3,4-3.9c1.1-1.7,1.9-3.6,2.3-5.6c0.5-2.1,0.7-4.3,0.7-6.5
	C188,73.8,187.7,71.6,187.2,69.4L187.2,69.4z"/>
<path class="st0" d="M228.5,90.2c2.3,2.2,5.5,3.3,9.7,3.3c2.8,0.1,5.5-0.7,7.8-2.3c2.2-1.5,3.5-3.1,4-4.8h13.2
	c-2.1,6.5-5.3,11.2-9.7,14c-4.7,2.9-10.2,4.4-15.8,4.2c-4,0.1-7.9-0.6-11.6-2.1c-3.3-1.3-6.3-3.3-8.8-5.9c-2.4-2.6-4.3-5.7-5.5-9.1
	c-1.3-3.7-2-7.7-1.9-11.6c0-3.9,0.6-7.7,2-11.4c1.3-3.4,3.2-6.5,5.7-9.1c2.5-2.6,5.5-4.7,8.8-6.1c3.6-1.5,7.4-2.3,11.3-2.2
	c4.2-0.1,8.4,0.8,12.1,2.7c3.4,1.7,6.3,4.2,8.5,7.2c2.3,3.1,3.9,6.6,4.8,10.3c1,4,1.3,8.1,1.1,12.1h-39.3
	C225,84.5,226.2,88,228.5,90.2z M245.4,61.5c-1.8-2-4.5-3-8.2-3c-2.1-0.1-4.1,0.3-6,1.2c-1.5,0.7-2.8,1.7-3.8,3
	c-0.9,1.1-1.6,2.4-2,3.8c-0.4,1.2-0.6,2.4-0.7,3.6h24.4C248.4,66.3,247.1,63.5,245.4,61.5L245.4,61.5z"/>
<path class="st0" d="M274.9,56.8c1.5-2.3,3.5-4.2,5.9-5.6c2.5-1.4,5.2-2.5,8.1-3c3-0.6,6-0.9,9-0.9c2.8,0,5.6,0.2,8.3,0.6
	c2.7,0.3,5.3,1.1,7.7,2.3c2.3,1.1,4.2,2.7,5.7,4.7c1.6,2.4,2.4,5.2,2.2,8v28.4c0,2.4,0.1,4.7,0.4,7.1c0.1,1.8,0.6,3.5,1.5,5.1h-15.2
	c-0.3-0.8-0.5-1.7-0.7-2.6c-0.2-0.9-0.3-1.8-0.4-2.7c-2.3,2.4-5.2,4.2-8.4,5.2c-3.2,1-6.6,1.5-9.9,1.5c-2.5,0-4.9-0.3-7.3-1
	c-2.2-0.6-4.2-1.6-5.9-3c-1.7-1.3-3.1-3.1-4-5.1c-1-2.3-1.5-4.8-1.4-7.3c-0.1-2.6,0.5-5.3,1.6-7.6c1-1.9,2.5-3.6,4.3-4.8
	c1.8-1.2,3.8-2.1,5.9-2.7c2.2-0.6,4.4-1.1,6.7-1.4c2.2-0.4,4.5-0.6,6.6-0.9c2-0.2,3.9-0.5,5.8-1c1.5-0.3,2.8-0.9,4-1.9
	c1-0.9,1.5-2.2,1.4-3.5c0.1-1.3-0.2-2.7-0.8-3.9c-0.5-0.9-1.2-1.7-2.1-2.2c-0.9-0.6-2-0.9-3.1-1.1c-1.2-0.2-2.5-0.3-3.7-0.3
	c-2.5-0.1-4.9,0.5-7,1.9c-1.7,1.3-2.7,3.4-3,6.3h-15C272.3,62.4,273.3,59.4,274.9,56.8z M304.5,78c-1,0.3-2,0.6-3.1,0.8
	c-1.1,0.2-2.2,0.4-3.4,0.5c-1.2,0.1-2.4,0.3-3.6,0.5c-1.1,0.2-2.2,0.5-3.3,0.8c-1,0.3-2,0.8-2.8,1.4c-0.8,0.6-1.5,1.4-2,2.3
	c-0.5,1.1-0.8,2.3-0.7,3.5c0,1.2,0.2,2.3,0.7,3.4c0.5,0.9,1.2,1.6,2,2.2c0.9,0.6,1.9,0.9,3,1.1c1.1,0.2,2.3,0.3,3.5,0.3
	c2.4,0.1,4.7-0.4,6.9-1.5c1.5-0.9,2.7-2.1,3.6-3.5c0.7-1.3,1.2-2.7,1.4-4.2c0.2-1.1,0.2-2.2,0.3-3.4v-5.6
	C306.2,77.2,305.4,77.7,304.5,78z"/>
<path class="st0" d="M347,103.3l-18.7-54.5H344L355.5,86h0.2l11.5-37.3h14.9l-18.5,54.5H347L347,103.3z"/>
<path class="st0" d="M404.4,90.2c2.3,2.2,5.5,3.3,9.7,3.3c2.8,0.1,5.5-0.7,7.8-2.3c1.8-1.1,3.3-2.8,4-4.8h13.2
	c-2.1,6.5-5.4,11.2-9.7,14c-4.4,2.8-9.6,4.2-15.8,4.2c-4,0.1-7.9-0.6-11.6-2.1c-3.3-1.3-6.3-3.3-8.8-5.9c-2.4-2.6-4.3-5.7-5.5-9.1
	c-1.4-3.7-2-7.7-2-11.6c0-3.9,0.6-7.7,2-11.4c1.3-3.4,3.2-6.5,5.7-9.1c2.5-2.6,5.5-4.7,8.8-6.1c3.6-1.5,7.4-2.3,11.3-2.2
	c4.2-0.1,8.4,0.9,12.2,2.7c3.4,1.7,6.3,4.2,8.5,7.2c2.3,3.1,3.9,6.6,4.8,10.3c1,4,1.4,8.1,1.1,12.1h-39.4
	C400.9,84.5,402.1,88,404.4,90.2z M421.3,61.5c-1.8-2-4.5-3-8.2-3c-2.1-0.1-4.1,0.3-6,1.2c-1.5,0.7-2.8,1.7-3.8,3
	c-0.9,1.1-1.6,2.4-2,3.8c-0.4,1.2-0.6,2.4-0.7,3.6H425C424.3,66.3,423.1,63.5,421.3,61.5L421.3,61.5z"/>
<path class="st0" d="M463.1,48.7v10.1h0.2c0.7-1.7,1.7-3.3,2.8-4.7c1.2-1.4,2.6-2.7,4.1-3.7c1.6-1,3.2-1.8,5-2.4
	c1.8-0.6,3.6-0.8,5.5-0.8c1.1,0,2.2,0.2,3.3,0.5v13.9c-0.7-0.1-1.5-0.3-2.5-0.4c-0.9-0.1-1.9-0.2-2.8-0.2c-2.4-0.1-4.8,0.4-7,1.4
	c-1.8,0.8-3.4,2.1-4.6,3.7c-1.2,1.7-2,3.5-2.5,5.5c-0.5,2.3-0.8,4.6-0.7,6.9v24.6h-15V48.7L463.1,48.7L463.1,48.7z"/>
<path class="st0" d="M570.7,107.3c-0.6,2.9-2,5.6-3.8,7.9c-2.3,2.7-5.3,4.8-8.5,6.2c-3.7,1.7-8.7,2.5-15,2.5c-2.8,0-5.5-0.3-8.2-1
	c-2.7-0.6-5.2-1.7-7.6-3.1c-2.3-1.4-4.2-3.2-5.7-5.4c-1.6-2.4-2.5-5.1-2.6-8h14.9c0.5,2.5,2,4.6,4.1,5.9c2.2,1.1,4.6,1.7,7.1,1.6
	c4.2,0,7.3-1.3,9.2-3.8c2-2.8,3-6.2,2.8-9.6v-7.2h-0.2c-1.6,2.8-4,5.1-6.9,6.4c-3,1.4-6.2,2.1-9.4,2.1c-3.6,0.1-7.2-0.6-10.6-2.2
	c-2.9-1.4-5.4-3.4-7.3-5.9c-2-2.6-3.4-5.6-4.2-8.8c-0.9-3.5-1.3-7-1.3-10.6c0-3.5,0.5-6.9,1.5-10.2c0.9-3.1,2.5-6.1,4.5-8.6
	c2-2.5,4.5-4.6,7.3-6c3.1-1.5,6.6-2.3,10.1-2.2c3.3-0.1,6.5,0.6,9.4,2c2.9,1.5,5.3,3.9,6.8,6.8h0.2v-7.3h14.2v51.1
	C571.6,102.3,571.3,104.8,570.7,107.3z M550.2,89.1c1.6-0.8,2.9-2,4-3.4c1.1-1.4,1.9-3.1,2.4-4.8c0.5-1.8,0.8-3.7,0.8-5.6
	c0-2.1-0.2-4.3-0.6-6.4c-0.4-1.9-1.1-3.7-2.1-5.3c-1-1.5-2.3-2.8-3.9-3.7c-1.9-1-4-1.4-6.1-1.4c-1.9-0.1-3.8,0.4-5.4,1.3
	c-1.5,0.8-2.8,2-3.8,3.4c-1.1,1.5-1.8,3.2-2.2,5c-0.5,1.9-0.7,3.9-0.7,5.9c0,2,0.2,3.9,0.6,5.9c0.4,1.8,1,3.6,2,5.2
	c0.9,1.5,2.2,2.8,3.8,3.8c1.8,1,3.8,1.6,5.8,1.5C546.6,90.5,548.5,90,550.2,89.1L550.2,89.1z"/>
<path class="st0" d="M597.9,48.7v10.1h0.2c0.7-1.7,1.7-3.3,2.8-4.7c1.2-1.4,2.6-2.7,4.1-3.7c1.5-1,3.2-1.8,5-2.4
	c1.8-0.6,3.6-0.8,5.5-0.8c1.1,0,2.2,0.2,3.3,0.5v13.9c-0.7-0.1-1.6-0.3-2.5-0.4c-0.9-0.1-1.9-0.2-2.8-0.2c-2.4-0.1-4.8,0.4-7,1.4
	c-1.8,0.8-3.4,2.1-4.6,3.7c-1.2,1.7-2,3.5-2.5,5.5c-0.5,2.3-0.8,4.6-0.7,6.9v24.6h-15V48.7L597.9,48.7L597.9,48.7z"/>
<path class="st0" d="M623.1,64.2c1.2-3.4,3.2-6.5,5.7-9.1c2.5-2.5,5.5-4.5,8.9-5.8c3.7-1.4,7.6-2.1,11.6-2.1c4-0.1,7.9,0.6,11.7,2.1
	c3.3,1.3,6.4,3.3,8.9,5.8c2.5,2.6,4.5,5.7,5.7,9.1c1.4,3.8,2.1,7.8,2,11.9c0.1,4-0.6,8-2,11.8c-1.2,3.4-3.2,6.4-5.7,9
	c-2.5,2.5-5.6,4.5-8.9,5.8c-3.7,1.4-7.7,2.1-11.7,2c-4,0.1-7.9-0.6-11.6-2c-3.3-1.3-6.4-3.2-8.9-5.8c-2.5-2.6-4.5-5.6-5.7-9
	c-1.4-3.8-2.1-7.8-2-11.8C621.1,72,621.7,68,623.1,64.2z M636.7,82.4c0.4,2,1.1,3.9,2.2,5.6c1,1.7,2.4,3,4.1,4
	c1.9,1,4.1,1.6,6.3,1.5c2.2,0.1,4.4-0.4,6.4-1.5c1.7-1,3.1-2.3,4.1-4c1-1.7,1.8-3.6,2.2-5.6c0.4-2.1,0.6-4.2,0.6-6.4
	c0-2.2-0.2-4.3-0.6-6.4c-0.4-2-1.1-3.9-2.2-5.6c-1-1.6-2.4-3-4.1-4c-1.9-1.1-4.2-1.6-6.4-1.5c-2.2-0.1-4.4,0.4-6.3,1.5
	c-1.7,1-3,2.4-4.1,4c-1.1,1.7-1.8,3.6-2.2,5.6c-0.4,2.1-0.6,4.3-0.6,6.4C636.1,78.2,636.3,80.3,636.7,82.4L636.7,82.4z"/>
<path class="st0" d="M724.2,103.3v-7.6h-0.3c-1.7,3-4.3,5.4-7.4,6.9c-2.9,1.4-6.1,2.1-9.3,2.1c-3.4,0.1-6.7-0.4-9.9-1.6
	c-2.4-0.9-4.5-2.5-6.1-4.5c-1.5-2.1-2.6-4.5-3.1-7.1c-0.6-3-0.9-6.1-0.9-9.2V48.7h15v30.8c0,4.5,0.7,7.9,2.1,10.1
	c1.4,2.2,3.9,3.3,7.5,3.3c4.1,0,7-1.2,8.9-3.6c1.8-2.4,2.7-6.4,2.7-12V48.7h15v54.5L724.2,103.3L724.2,103.3z"/>
<path class="st0" d="M764,48.7v7h0.2c1.6-2.8,4.1-5,7-6.4c2.9-1.4,6.1-2,9.3-2c3.8-0.1,7.6,0.7,11.1,2.4c3,1.5,5.6,3.7,7.7,6.4
	c2.1,2.8,3.6,6,4.5,9.3c1,3.6,1.5,7.4,1.5,11.1c0,3.6-0.5,7.1-1.5,10.5c-0.9,3.3-2.4,6.3-4.5,9c-2,2.6-4.6,4.7-7.5,6.2
	c-3.3,1.6-6.9,2.4-10.5,2.3c-3.2,0-6.4-0.7-9.3-2.1c-2.8-1.4-5.3-3.5-7-6.1h-0.2v25.9h-15V48.8L764,48.7L764,48.7z M783.5,92
	c1.6-1,3-2.3,4-3.9c1.1-1.7,1.8-3.6,2.2-5.5c0.4-2.1,0.6-4.3,0.6-6.4c0-2.2-0.2-4.3-0.7-6.4c-0.4-2-1.2-3.9-2.3-5.6
	c-1-1.6-2.4-3-4.1-4c-1.8-1.1-3.9-1.6-6.1-1.5c-2.2-0.1-4.3,0.5-6.2,1.5c-1.6,1-3,2.4-4,4c-1.1,1.7-1.8,3.6-2.2,5.6
	c-0.4,2.2-0.6,4.3-0.6,6.5c0,2.2,0.2,4.3,0.7,6.4c0.4,2,1.2,3.8,2.2,5.5c1,1.6,2.4,2.9,4.1,3.9c1.9,1,4,1.5,6.1,1.5
	C779.5,93.5,781.6,93,783.5,92z"/>
<path class="st1" d="M7.4,8.5c6.1-5.3,15.7-8,25-8.5S50.7,1.4,55.6,5c4,3,5.2,7.2,1.6,12.6C49.9,28.3,45.9,35,42.9,42.3
	c-1.7,4.2-3.2,8.6-4.3,13c-3.4,12.2-5.6,21.1-7.8,27.2s-4.5,9.3-8.2,10.2c-0.7,0.2-1.4,0.3-2.1,0.3c-2.7,0.1-5.5-2.6-8-7.1
	C7.1,76.7,2.6,60.1,0.8,44.7c-1.5-13.6-0.9-26.4,3.3-32.5C5.1,10.9,6.2,9.6,7.4,8.5z"/>
<path class="st2" d="M18.1,130.7c4.6,4.1,12.5,6.6,23.4,7c5.3,0.2,10.6-0.3,15.9-1.3c13.4-2.8,25.7-9.3,35.4-18.8
	c9.2-9,16.3-20,20.6-32.2c0.7-1.7,1.2-3.4,1.6-5.1c4.2-15.9-0.3-28.9-8.4-37.5c-3.2-3.4-7-6.2-11.3-8.3c-5.2-2.3-10.9-3.4-16.6-3.3
	c-9.9,0.1-20.6,3.6-26.8,13.5c-0.4,0.7-0.9,1.5-1.3,2.4c-5.1,9.9-9.1,27.5-11.1,34.5c-2.7,9.5-6.3,15.9-9.8,20.5
	c-8.3,10.6-15.8,10.5-16.6,18.4C12.7,124.4,15,128,18.1,130.7z"/>
</svg>
