<svg id="Layer_1" data-name="Layer 1" xmlns="http://www.w3.org/2000/svg" viewBox="0 0 805.28 137.65"><defs><style>.cls-1{fill:#fff;}</style></defs><title>Beaver-Logo-White</title><path class="cls-1" d="M1467.45-503v27.43h0.21a16,16,0,0,1,7.44-6.17,25.18,25.18,0,0,1,9.76-2A20.79,20.79,0,0,1,1493-482a20.81,20.81,0,0,1,7.22,5.17,26.41,26.41,0,0,1,5.22,8.92,37.42,37.42,0,0,1,2,12.93,37.4,37.4,0,0,1-2,12.93,26.4,26.4,0,0,1-5.22,8.92A20.77,20.77,0,0,1,1493-428a20.76,20.76,0,0,1-8.12,1.69,28.79,28.79,0,0,1-10.76-1.9,13.64,13.64,0,0,1-7.17-6.44h-0.21v7h-14.24V-503h15Zm24.26,41.47a17.42,17.42,0,0,0-2.32-5.59,12.18,12.18,0,0,0-4-3.85,11,11,0,0,0-5.75-1.43A11,11,0,0,0,1474-471a12,12,0,0,0-4,3.85,17.39,17.39,0,0,0-2.32,5.59,29.14,29.14,0,0,0-.74,6.65,28.65,28.65,0,0,0,.74,6.54,17.33,17.33,0,0,0,2.32,5.59,11.93,11.93,0,0,0,4,3.85,11,11,0,0,0,5.7,1.42,11,11,0,0,0,5.75-1.42,12.13,12.13,0,0,0,4-3.85,17.37,17.37,0,0,0,2.32-5.59,28.89,28.89,0,0,0,.74-6.54A29.39,29.39,0,0,0,1491.71-461.54Z" transform="translate(-1304.53 530.96)"/><path class="cls-1" d="M1533-440.75q3.38,3.27,9.71,3.27a13.34,13.34,0,0,0,7.8-2.27q3.27-2.27,4-4.8h13.18q-3.17,9.81-9.7,14a28.54,28.54,0,0,1-15.82,4.22,31.12,31.12,0,0,1-11.6-2.06,24.08,24.08,0,0,1-8.75-5.86,26.28,26.28,0,0,1-5.54-9.08,33.18,33.18,0,0,1-1.95-11.61,31.8,31.8,0,0,1,2-11.39,26.73,26.73,0,0,1,5.7-9.13,26.78,26.78,0,0,1,8.81-6.07,28.25,28.25,0,0,1,11.34-2.22,25.92,25.92,0,0,1,12.13,2.69,24.23,24.23,0,0,1,8.49,7.23,29.75,29.75,0,0,1,4.8,10.34,38.63,38.63,0,0,1,1.05,12.13h-39.34Q1529.58-444,1533-440.75Zm16.93-28.7q-2.69-3-8.17-3a13,13,0,0,0-6,1.21,11.42,11.42,0,0,0-3.8,3,11,11,0,0,0-2,3.8,17.08,17.08,0,0,0-.69,3.59h24.37Q1552.57-466.5,1549.88-469.46Z" transform="translate(-1304.53 530.96)"/><path class="cls-1" d="M1579.47-474.21a18,18,0,0,1,5.91-5.59,25.73,25.73,0,0,1,8.07-3,46,46,0,0,1,9-.9,61.11,61.11,0,0,1,8.33.58,25.55,25.55,0,0,1,7.7,2.27,15.12,15.12,0,0,1,5.69,4.7,13.1,13.1,0,0,1,2.22,8v28.39a56.7,56.7,0,0,0,.42,7.07,12.7,12.7,0,0,0,1.48,5.06h-15.19a21.15,21.15,0,0,1-.69-2.58,22.64,22.64,0,0,1-.37-2.69,19.53,19.53,0,0,1-8.44,5.17,33.84,33.84,0,0,1-9.92,1.48,26.75,26.75,0,0,1-7.28-.95,16.64,16.64,0,0,1-5.91-3,13.71,13.71,0,0,1-4-5.06,17.15,17.15,0,0,1-1.42-7.28,15.91,15.91,0,0,1,1.64-7.65A13.66,13.66,0,0,1,1581-455a19,19,0,0,1,5.91-2.69,63.07,63.07,0,0,1,6.7-1.42q3.37-.53,6.64-0.85a40,40,0,0,0,5.8-1,10.11,10.11,0,0,0,4-1.85,4.06,4.06,0,0,0,1.37-3.53,8,8,0,0,0-.79-3.85,5.79,5.79,0,0,0-2.11-2.22,8.32,8.32,0,0,0-3.06-1.06,25.12,25.12,0,0,0-3.74-.26,11.37,11.37,0,0,0-7,1.9q-2.53,1.9-3,6.33h-15A17.41,17.41,0,0,1,1579.47-474.21ZM1609.06-453a25,25,0,0,1-3.06.79q-1.63.31-3.43,0.52c-1.2.14-2.39,0.32-3.59,0.53a27.05,27.05,0,0,0-3.32.84,9.85,9.85,0,0,0-2.85,1.43,6.73,6.73,0,0,0-2,2.27,7.31,7.31,0,0,0-.74,3.48,7,7,0,0,0,.74,3.38,5.64,5.64,0,0,0,2,2.16,8.47,8.47,0,0,0,3,1.11,18.69,18.69,0,0,0,3.48.32,13.24,13.24,0,0,0,6.86-1.47,9.91,9.91,0,0,0,3.59-3.54,11.36,11.36,0,0,0,1.42-4.17,28.92,28.92,0,0,0,.27-3.38v-5.59A6.72,6.72,0,0,1,1609.06-453Z" transform="translate(-1304.53 530.96)"/><path class="cls-1" d="M1651.51-427.67l-18.67-54.55h15.72l11.5,37.25h0.21l11.5-37.25h14.87l-18.46,54.55h-16.67Z" transform="translate(-1304.53 530.96)"/><path class="cls-1" d="M1708.89-440.75q3.38,3.27,9.7,3.27a13.35,13.35,0,0,0,7.81-2.27,9.44,9.44,0,0,0,4-4.8h13.19q-3.17,9.81-9.71,14t-15.82,4.22a31.11,31.11,0,0,1-11.6-2.06,24.08,24.08,0,0,1-8.75-5.86,26.3,26.3,0,0,1-5.54-9.08,33.14,33.14,0,0,1-2-11.61,31.85,31.85,0,0,1,2-11.39,26.78,26.78,0,0,1,5.7-9.13,26.81,26.81,0,0,1,8.81-6.07,28.21,28.21,0,0,1,11.34-2.22A25.93,25.93,0,0,1,1730.2-481a24.27,24.27,0,0,1,8.49,7.23,29.78,29.78,0,0,1,4.8,10.34,38.63,38.63,0,0,1,1.06,12.13H1705.2Q1705.52-444,1708.89-440.75Zm16.93-28.7q-2.69-3-8.18-3a13,13,0,0,0-6,1.21,11.4,11.4,0,0,0-3.8,3,11,11,0,0,0-2,3.8,17.31,17.31,0,0,0-.69,3.59h24.36Q1728.51-466.5,1725.82-469.46Z" transform="translate(-1304.53 530.96)"/><path class="cls-1" d="M1767.65-482.22v10.13h0.21a18.45,18.45,0,0,1,2.85-4.7,18.77,18.77,0,0,1,4.11-3.69,20.22,20.22,0,0,1,5-2.37,17.85,17.85,0,0,1,5.48-.84,11.71,11.71,0,0,1,3.27.53v13.93c-0.7-.14-1.54-0.26-2.53-0.37a26.9,26.9,0,0,0-2.85-.16,16,16,0,0,0-7,1.37,12.07,12.07,0,0,0-4.59,3.74,15,15,0,0,0-2.48,5.54,29.94,29.94,0,0,0-.74,6.86v24.58h-15v-54.55h14.24Z" transform="translate(-1304.53 530.96)"/><path class="cls-1" d="M1875.27-423.66a18.49,18.49,0,0,1-3.85,7.86,22.93,22.93,0,0,1-8.54,6.17q-5.59,2.53-15,2.53a34.9,34.9,0,0,1-8.18-1,26,26,0,0,1-7.59-3.11,18.66,18.66,0,0,1-5.7-5.44,15.74,15.74,0,0,1-2.58-8h14.87a8.54,8.54,0,0,0,4.12,5.85,14.72,14.72,0,0,0,7.06,1.64q6.33,0,9.23-3.8a14.92,14.92,0,0,0,2.8-9.61v-7.17h-0.21a14.83,14.83,0,0,1-6.91,6.38,22.4,22.4,0,0,1-9.44,2.06,23.81,23.81,0,0,1-10.55-2.16,20,20,0,0,1-7.28-5.91,24.63,24.63,0,0,1-4.16-8.76,41.48,41.48,0,0,1-1.32-10.61,34.08,34.08,0,0,1,1.53-10.18,26.58,26.58,0,0,1,4.48-8.65,21.67,21.67,0,0,1,7.33-6,22,22,0,0,1,10.07-2.22,21.07,21.07,0,0,1,9.44,2,16.32,16.32,0,0,1,6.81,6.75h0.21v-7.28h14.24v51.07A36.78,36.78,0,0,1,1875.27-423.66Zm-20.52-18.15a11.65,11.65,0,0,0,4-3.38,14.92,14.92,0,0,0,2.38-4.8,19.89,19.89,0,0,0,.79-5.65,30.92,30.92,0,0,0-.63-6.38,15.92,15.92,0,0,0-2.11-5.33,10.92,10.92,0,0,0-3.9-3.69,12.31,12.31,0,0,0-6.12-1.37,11,11,0,0,0-5.43,1.27,11.43,11.43,0,0,0-3.8,3.43,14.48,14.48,0,0,0-2.22,5,24.38,24.38,0,0,0-.68,5.86,29.65,29.65,0,0,0,.58,5.86,15.82,15.82,0,0,0,2,5.22,11.72,11.72,0,0,0,3.75,3.8,10.59,10.59,0,0,0,5.8,1.48A11.91,11.91,0,0,0,1854.76-441.81Z" transform="translate(-1304.53 530.96)"/><path class="cls-1" d="M1902.44-482.22v10.13h0.21a18.35,18.35,0,0,1,2.85-4.7,18.72,18.72,0,0,1,4.11-3.69,20.11,20.11,0,0,1,5-2.37,17.86,17.86,0,0,1,5.48-.84,11.74,11.74,0,0,1,3.27.53v13.93c-0.7-.14-1.55-0.26-2.53-0.37a26.89,26.89,0,0,0-2.85-.16,16,16,0,0,0-7,1.37,12,12,0,0,0-4.59,3.74,15,15,0,0,0-2.48,5.54,30.06,30.06,0,0,0-.74,6.86v24.58h-15v-54.55h14.24Z" transform="translate(-1304.53 530.96)"/><path class="cls-1" d="M1927.65-466.77a25.56,25.56,0,0,1,5.7-9.08,25.58,25.58,0,0,1,8.86-5.8,31.18,31.18,0,0,1,11.61-2.06,31.59,31.59,0,0,1,11.65,2.06,25.49,25.49,0,0,1,8.92,5.8,25.64,25.64,0,0,1,5.7,9.08,33.52,33.52,0,0,1,2,11.87,33.07,33.07,0,0,1-2,11.82,25.64,25.64,0,0,1-5.7,9,24.79,24.79,0,0,1-8.92,5.75,32.3,32.3,0,0,1-11.65,2,31.88,31.88,0,0,1-11.61-2,24.87,24.87,0,0,1-8.86-5.75,25.56,25.56,0,0,1-5.7-9,33.1,33.1,0,0,1-2-11.82A33.55,33.55,0,0,1,1927.65-466.77Zm13.61,18.25a17.06,17.06,0,0,0,2.16,5.59,11.5,11.5,0,0,0,4.06,4,12.35,12.35,0,0,0,6.33,1.48,12.64,12.64,0,0,0,6.38-1.48,11.37,11.37,0,0,0,4.12-4,17,17,0,0,0,2.16-5.59,32,32,0,0,0,.63-6.38,32.87,32.87,0,0,0-.63-6.44,16.4,16.4,0,0,0-2.16-5.59,12,12,0,0,0-4.12-4,12.32,12.32,0,0,0-6.38-1.53,12,12,0,0,0-6.33,1.53,12.12,12.12,0,0,0-4.06,4,16.46,16.46,0,0,0-2.16,5.59,33,33,0,0,0-.63,6.44A32.14,32.14,0,0,0,1941.25-448.51Z" transform="translate(-1304.53 530.96)"/><path class="cls-1" d="M2028.7-427.67v-7.6h-0.32a16.86,16.86,0,0,1-7.38,6.86,21.8,21.8,0,0,1-9.29,2.11,26.19,26.19,0,0,1-9.86-1.58,14.22,14.22,0,0,1-6.07-4.48,17.56,17.56,0,0,1-3.11-7.07,43.7,43.7,0,0,1-.9-9.23v-33.55h15v30.81q0,6.76,2.11,10.08t7.49,3.32q6.12,0,8.86-3.64t2.74-12v-28.59h15v54.55H2028.7Z" transform="translate(-1304.53 530.96)"/><path class="cls-1" d="M2068.57-482.22v7h0.21a16.46,16.46,0,0,1,7-6.44,21.36,21.36,0,0,1,9.29-2,23.59,23.59,0,0,1,11.07,2.43,22.82,22.82,0,0,1,7.7,6.44,27.2,27.2,0,0,1,4.54,9.34,41.5,41.5,0,0,1,1.48,11.13,37.51,37.51,0,0,1-1.48,10.55,26.79,26.79,0,0,1-4.48,9,22.19,22.19,0,0,1-7.49,6.23,22.55,22.55,0,0,1-10.5,2.32,21.21,21.21,0,0,1-9.33-2.06,17.62,17.62,0,0,1-7-6.07h-0.21v25.85h-15v-73.65h14.24ZM2088-439a12,12,0,0,0,4-3.85,15.88,15.88,0,0,0,2.16-5.54,32.83,32.83,0,0,0,.63-6.44,30.22,30.22,0,0,0-.69-6.44,17.14,17.14,0,0,0-2.27-5.65,12.66,12.66,0,0,0-4.06-4,11.34,11.34,0,0,0-6.06-1.53,11.56,11.56,0,0,0-6.17,1.53,12.31,12.31,0,0,0-4,4,16.4,16.4,0,0,0-2.16,5.59,33.29,33.29,0,0,0-.63,6.54,30.22,30.22,0,0,0,.69,6.44,16.65,16.65,0,0,0,2.22,5.54,11.82,11.82,0,0,0,4.06,3.85,11.92,11.92,0,0,0,6.12,1.48A11.87,11.87,0,0,0,2088-439Z" transform="translate(-1304.53 530.96)"/><path class="cls-1" d="M1311.93-522.43c6.07-5.27,15.66-8,25-8.45s18.3,1.27,23.18,4.92c4,3,5.23,7.23,1.61,12.57-7.29,10.74-11.33,17.48-14.34,24.69a108.19,108.19,0,0,0-4.35,13c-3.4,12.24-5.56,21.14-7.77,27.2s-4.52,9.31-8.21,10.22a9.69,9.69,0,0,1-2.11.27c-2.7.06-5.46-2.65-8-7.13-5.28-9.15-9.81-25.7-11.57-41.14-1.54-13.62-.92-26.37,3.29-32.45A19.61,19.61,0,0,1,1311.93-522.43Z" transform="translate(-1304.53 530.96)"/><path class="cls-1" d="M1322.59-400.29c4.62,4.12,12.47,6.61,23.42,6.95a69.29,69.29,0,0,0,15.86-1.33,71.33,71.33,0,0,0,35.45-18.84,85.56,85.56,0,0,0,20.62-32.2q1-2.6,1.62-5.11c4.21-15.94-.33-28.88-8.36-37.45a37.7,37.7,0,0,0-11.28-8.25,39.32,39.32,0,0,0-16.59-3.27c-9.87.1-20.61,3.6-26.75,13.48-0.45.72-.89,1.51-1.33,2.36-5.07,9.91-9.08,27.51-11.11,34.52-2.74,9.51-6.26,15.9-9.82,20.46-8.32,10.65-15.81,10.5-16.62,18.41C1317.27-406.53,1319.5-403,1322.59-400.29Z" transform="translate(-1304.53 530.96)"/></svg>